<svg id="Layer_1" data-name="Layer 1" xmlns="http://www.w3.org/2000/svg" width="47.83" height="59.54" viewBox="0 0 47.83 59.54">
  <title>naine</title>
  <g>
    <circle cx="30.94" cy="28.47" r="2.25" style="fill: #231f20"/>
    <circle cx="16.11" cy="28.47" r="2.25" style="fill: #231f20"/>
    <path d="M38.89,49c2.34,10.59,14.52,10,14.52,10V24.54l-.14-4C53.27,10,43,1.46,30.43,1.46S7.58,10,7.58,20.56V59s12.17.6,14.52-10" transform="translate(-6.58 -0.46)" style="fill: none;stroke: #231f20;stroke-miterlimit: 10;stroke-width: 2px"/>
  </g>
  <path d="M46.56,22.52l-.27,13.89a15.88,15.88,0,0,1-31.73,0l-.3-14s12.69,2,21.84-4c1.65-1.1,3.23-2.4,3.23-2.4A10.08,10.08,0,0,0,46.56,22.52Z" transform="translate(-6.58 -0.46)" style="fill: none;stroke: #231f20;stroke-miterlimit: 10;stroke-width: 2px"/>
  <path d="M28.43,43.78s4.13.5,6.83-2.05" transform="translate(-6.58 -0.46)" style="fill: none;stroke: #231f20;stroke-linecap: round;stroke-miterlimit: 10;stroke-width: 2px"/>
  <path d="M78.91,36.66" transform="translate(-6.58 -0.46)" style="fill: none;stroke: #000;stroke-miterlimit: 10;stroke-width: 2px"/>
  <path d="M32.2,37" transform="translate(-6.58 -0.46)" style="fill: none;stroke: #000;stroke-linecap: round;stroke-miterlimit: 10;stroke-width: 2px"/>
  <path d="M30.06,28" transform="translate(-6.58 -0.46)" style="fill: none;stroke: #000;stroke-linecap: round;stroke-miterlimit: 10;stroke-width: 2px"/>
</svg>
