<?xml version="1.0" encoding="UTF-8"?>
<svg width="140px" height="60px" viewBox="0 0 140 60" version="1.1" xmlns="http://www.w3.org/2000/svg" xmlns:xlink="http://www.w3.org/1999/xlink">
    <title>logo</title>
    <g id="Page-1" stroke="none" stroke-width="1" fill="none" fill-rule="evenodd">
        <g id="logo" fill-rule="nonzero">
            <rect id="Rectangle" fill="#FFFFFF" x="0" y="0" width="140" height="60"></rect>
            <g id="ES_Logo_ENG" transform="translate(11.000000, 9.800000)" fill="#000000">
                <g id="Group" transform="translate(48.969027, 18.429204)">
                    <path d="M5.16017699,7.26637168 C5.16017699,6.89778761 5.05486726,6.63451327 4.79159292,6.47654867 C4.52831858,6.31858407 4.10707965,6.1079646 3.47522124,5.89734513 C2.84336283,5.68672566 2.31681416,5.47610619 1.94823009,5.26548673 C0.947787611,4.68628319 0.421238938,3.94911504 0.421238938,3.00132743 C0.421238938,2.52743363 0.57920354,2.05353982 0.842477876,1.68495575 C1.10575221,1.31637168 1.52699115,1.00044248 2.00088496,0.789823009 C2.52743363,0.57920354 3.10663717,0.473893805 3.73849558,0.473893805 C4.37035398,0.473893805 4.94955752,0.57920354 5.47610619,0.842477876 C6.00265487,1.05309735 6.37123894,1.42168142 6.63451327,1.84292035 C6.89778761,2.26415929 7.05575221,2.7380531 7.05575221,3.31725664 L5.21283186,3.31725664 C5.21283186,2.8960177 5.10752212,2.5800885 4.84424779,2.36946903 C4.58097345,2.15884956 4.21238938,2.00088496 3.73849558,2.00088496 C3.26460177,2.00088496 2.94867257,2.10619469 2.68539823,2.26415929 C2.42212389,2.47477876 2.31681416,2.68539823 2.31681416,3.00132743 C2.31681416,3.31725664 2.47477876,3.52787611 2.7380531,3.73849558 C3.0539823,3.94911504 3.47522124,4.10707965 4.05442478,4.31769912 C5.10752212,4.63362832 5.89734513,5.05486726 6.37123894,5.52876106 C6.84513274,6.00265487 7.10840708,6.58185841 7.10840708,7.31902655 C7.10840708,8.10884956 6.79247788,8.74070796 6.21327434,9.1619469 C5.6340708,9.58318584 4.84424779,9.84646018 3.84380531,9.84646018 C3.15929204,9.84646018 2.52743363,9.74115044 1.94823009,9.47787611 C1.36902655,9.21460177 0.947787611,8.89867257 0.631858407,8.42477876 C0.315929204,8.00353982 0.210619469,7.47699115 0.210619469,6.89778761 L2.05353982,6.89778761 C2.05353982,7.89823009 2.63274336,8.37212389 3.84380531,8.37212389 C4.26504425,8.37212389 4.63362832,8.26681416 4.89690265,8.10884956 C5.05486726,7.84557522 5.16017699,7.58230088 5.16017699,7.26637168 Z" id="Path"></path>
                    <polygon id="Path" points="15.1119469 2.10619469 12.3738938 2.10619469 12.3738938 9.63584071 10.5309735 9.63584071 10.5309735 2.10619469 7.84557522 2.10619469 7.84557522 0.57920354 15.1646018 0.57920354 15.1646018 2.10619469"></polygon>
                    <path d="M20.640708,7.79292035 L17.3761062,7.79292035 L16.7442478,9.63584071 L14.7960177,9.63584071 L18.1132743,0.57920354 L19.850885,0.57920354 L23.2207965,9.63584071 L21.2725664,9.63584071 L20.640708,7.79292035 Z M17.9026549,6.2659292 L20.1668142,6.2659292 L19.0610619,2.8960177 L17.9026549,6.2659292 Z" id="Shape"></path>
                    <polygon id="Path" points="30.2238938 2.10619469 27.4858407 2.10619469 27.4858407 9.63584071 25.6429204 9.63584071 25.6429204 2.10619469 22.9575221 2.10619469 22.9575221 0.57920354 30.2765487 0.57920354 30.2765487 2.10619469"></polygon>
                    <polygon id="Path" points="33.330531 9.63584071 31.4876106 9.63584071 31.4876106 0.57920354 33.330531 0.57920354"></polygon>
                    <path d="M39.8070796,7.26637168 C39.8070796,6.89778761 39.7017699,6.63451327 39.4384956,6.47654867 C39.1752212,6.31858407 38.7539823,6.1079646 38.1221239,5.89734513 C37.4902655,5.68672566 36.9637168,5.47610619 36.5951327,5.26548673 C35.5946903,4.68628319 35.0681416,3.94911504 35.0681416,3.00132743 C35.0681416,2.52743363 35.2261062,2.05353982 35.4893805,1.68495575 C35.7526549,1.31637168 36.1738938,1.00044248 36.6477876,0.789823009 C37.1743363,0.57920354 37.7535398,0.473893805 38.3853982,0.473893805 C39.0172566,0.473893805 39.5964602,0.57920354 40.1230088,0.842477876 C40.6495575,1.05309735 41.0181416,1.42168142 41.2814159,1.84292035 C41.5446903,2.26415929 41.7026549,2.7380531 41.7026549,3.31725664 L39.8597345,3.31725664 C39.8597345,2.8960177 39.7544248,2.5800885 39.4911504,2.36946903 C39.2278761,2.15884956 38.859292,2.00088496 38.3853982,2.00088496 C37.9115044,2.00088496 37.5955752,2.10619469 37.3323009,2.26415929 C37.0690265,2.47477876 36.9637168,2.68539823 36.9637168,3.00132743 C36.9637168,3.31725664 37.1216814,3.52787611 37.3849558,3.73849558 C37.700885,3.94911504 38.1221239,4.10707965 38.7013274,4.31769912 C39.7544248,4.63362832 40.5442478,5.05486726 41.0181416,5.52876106 C41.4920354,6.00265487 41.7553097,6.58185841 41.7553097,7.31902655 C41.7553097,8.10884956 41.4393805,8.74070796 40.860177,9.1619469 C40.2809735,9.58318584 39.4911504,9.84646018 38.490708,9.84646018 C37.8061947,9.84646018 37.1743363,9.74115044 36.5951327,9.47787611 C36.0159292,9.21460177 35.5946903,8.89867257 35.2787611,8.42477876 C34.9628319,8.00353982 34.8575221,7.47699115 34.8575221,6.89778761 L36.7004425,6.89778761 C36.7004425,7.89823009 37.279646,8.37212389 38.490708,8.37212389 C38.9119469,8.37212389 39.280531,8.26681416 39.5438053,8.10884956 C39.7017699,7.84557522 39.8070796,7.58230088 39.8070796,7.26637168 Z" id="Path"></path>
                    <polygon id="Path" points="49.8115044 2.10619469 47.0734513 2.10619469 47.0734513 9.63584071 45.230531 9.63584071 45.230531 2.10619469 42.5451327 2.10619469 42.5451327 0.57920354 49.8641593 0.57920354 49.8641593 2.10619469"></polygon>
                    <polygon id="Path" points="52.9707965 9.63584071 51.1278761 9.63584071 51.1278761 0.57920354 52.9707965 0.57920354"></polygon>
                    <path d="M61.8168142,6.63451327 C61.7641593,7.63495575 61.3955752,8.37212389 60.7637168,8.95132743 C60.1318584,9.53053097 59.2893805,9.79380531 58.2362832,9.79380531 C57.0778761,9.79380531 56.1827434,9.42522124 55.4982301,8.63539823 C54.8137168,7.84557522 54.4977876,6.79247788 54.4977876,5.42345133 L54.4977876,4.84424779 C54.4977876,3.94911504 54.6557522,3.2119469 54.9716814,2.52743363 C55.2876106,1.84292035 55.7088496,1.36902655 56.2880531,1.00044248 C56.8672566,0.631858407 57.499115,0.473893805 58.2362832,0.473893805 C59.2893805,0.473893805 60.0792035,0.737168142 60.7110619,1.31637168 C61.3429204,1.89557522 61.7115044,2.68539823 61.8168142,3.68584071 L59.9738938,3.68584071 C59.9212389,3.10663717 59.7632743,2.68539823 59.5,2.42212389 C59.2367257,2.15884956 58.8154867,2.00088496 58.2362832,2.00088496 C57.6044248,2.00088496 57.1831858,2.21150442 56.8672566,2.68539823 C56.5513274,3.10663717 56.3933628,3.84380531 56.3933628,4.73893805 L56.3933628,5.42345133 C56.3933628,6.42389381 56.5513274,7.10840708 56.8146018,7.58230088 C57.130531,8.05619469 57.5517699,8.26681416 58.1836283,8.26681416 C58.7628319,8.26681416 59.1840708,8.10884956 59.4473451,7.84557522 C59.7106195,7.58230088 59.8685841,7.16106195 59.9212389,6.63451327 L61.8168142,6.63451327 Z" id="Path"></path>
                    <path d="M67.819469,7.26637168 C67.819469,6.89778761 67.7141593,6.63451327 67.450885,6.47654867 C67.1876106,6.31858407 66.7663717,6.1079646 66.1345133,5.89734513 C65.5026549,5.68672566 64.9761062,5.47610619 64.6075221,5.26548673 C63.6070796,4.68628319 63.080531,3.94911504 63.080531,3.00132743 C63.080531,2.52743363 63.2384956,2.05353982 63.5017699,1.68495575 C63.7650442,1.31637168 64.1862832,1.00044248 64.660177,0.789823009 C65.1867257,0.57920354 65.7659292,0.473893805 66.3977876,0.473893805 C67.029646,0.473893805 67.6088496,0.57920354 68.1353982,0.842477876 C68.6619469,1.05309735 69.030531,1.42168142 69.2938053,1.84292035 C69.5570796,2.26415929 69.7150442,2.7380531 69.7150442,3.31725664 L67.8721239,3.31725664 C67.8721239,2.8960177 67.7668142,2.5800885 67.5035398,2.36946903 C67.2402655,2.15884956 66.8716814,2.00088496 66.3977876,2.00088496 C65.9238938,2.00088496 65.6079646,2.10619469 65.3446903,2.26415929 C65.0814159,2.47477876 64.9761062,2.68539823 64.9761062,3.00132743 C64.9761062,3.31725664 65.1340708,3.52787611 65.3973451,3.73849558 C65.7132743,3.94911504 66.1345133,4.10707965 66.7137168,4.31769912 C67.7668142,4.63362832 68.5566372,5.05486726 69.030531,5.52876106 C69.5044248,6.00265487 69.7676991,6.58185841 69.7676991,7.31902655 C69.7676991,8.10884956 69.4517699,8.74070796 68.8725664,9.1619469 C68.2933628,9.58318584 67.5035398,9.84646018 66.5030973,9.84646018 C65.8185841,9.84646018 65.1867257,9.74115044 64.6075221,9.47787611 C64.0283186,9.21460177 63.6070796,8.89867257 63.2911504,8.42477876 C62.9752212,8.00353982 62.8699115,7.47699115 62.8699115,6.89778761 L64.7128319,6.89778761 C64.7128319,7.89823009 65.2920354,8.37212389 66.5030973,8.37212389 C66.9243363,8.37212389 67.2929204,8.26681416 67.5561947,8.10884956 C67.7141593,7.84557522 67.819469,7.58230088 67.819469,7.26637168 Z" id="Path"></path>
                    <polygon id="Path" points="5.89734513 17.7446903 2.36946903 17.7446903 2.36946903 20.1668142 6.52920354 20.1668142 6.52920354 21.6411504 0.526548673 21.6411504 0.526548673 12.5845133 6.52920354 12.5845133 6.52920354 14.1115044 2.36946903 14.1115044 2.36946903 16.270354 5.89734513 16.270354"></polygon>
                    <path d="M12.3738938,19.2716814 C12.3738938,18.9030973 12.2685841,18.639823 12.0053097,18.4818584 C11.7420354,18.3238938 11.3207965,18.1132743 10.6889381,17.9026549 C10.0570796,17.6920354 9.53053097,17.4814159 9.1619469,17.2707965 C8.16150442,16.6915929 7.63495575,15.9544248 7.63495575,15.0066372 C7.63495575,14.5327434 7.79292035,14.0588496 8.05619469,13.6902655 C8.31946903,13.3216814 8.74070796,13.0057522 9.21460177,12.7951327 C9.74115044,12.5845133 10.320354,12.4792035 10.9522124,12.4792035 C11.5840708,12.4792035 12.1632743,12.5845133 12.689823,12.8477876 C13.2163717,13.0584071 13.5849558,13.4269912 13.8482301,13.8482301 C14.1115044,14.269469 14.269469,14.7433628 14.269469,15.3225664 L12.4265487,15.3225664 C12.4265487,14.9013274 12.3212389,14.5853982 12.0579646,14.3747788 C11.7946903,14.1641593 11.4261062,14.0061947 10.9522124,14.0061947 C10.4783186,14.0061947 10.1623894,14.1115044 9.89911504,14.269469 C9.63584071,14.4800885 9.53053097,14.690708 9.53053097,15.0066372 C9.53053097,15.3225664 9.68849558,15.5331858 9.95176991,15.7438053 C10.2676991,15.9544248 10.6889381,16.1123894 11.2681416,16.3230088 C12.3212389,16.6389381 13.1110619,17.060177 13.5849558,17.5340708 C14.0588496,18.0079646 14.3221239,18.5871681 14.3221239,19.3243363 C14.3221239,20.1141593 14.0061947,20.7460177 13.4269912,21.1672566 C12.8477876,21.5884956 12.0579646,21.8517699 11.0575221,21.8517699 C10.3730088,21.8517699 9.74115044,21.7464602 9.1619469,21.4831858 C8.58274336,21.2199115 8.16150442,20.9039823 7.84557522,20.4300885 C7.52964602,20.0088496 7.42433628,19.4823009 7.42433628,18.9030973 L9.26725664,18.9030973 C9.26725664,19.9035398 9.84646018,20.3774336 11.0575221,20.3774336 C11.4787611,20.3774336 11.8473451,20.2721239 12.1106195,20.1141593 C12.2685841,19.850885 12.3738938,19.5876106 12.3738938,19.2716814 Z" id="Path"></path>
                    <polygon id="Path" points="22.3783186 14.1115044 19.6402655 14.1115044 19.6402655 21.6411504 17.7973451 21.6411504 17.7973451 14.1115044 15.1119469 14.1115044 15.1119469 12.5845133 22.4309735 12.5845133 22.4309735 14.1115044"></polygon>
                    <path d="M30.7504425,17.3234513 C30.7504425,18.2185841 30.5924779,19.0084071 30.2765487,19.6929204 C29.9606195,20.3774336 29.5393805,20.9039823 28.960177,21.2725664 C28.3809735,21.6411504 27.6964602,21.799115 26.959292,21.799115 C26.2221239,21.799115 25.5376106,21.6411504 24.9584071,21.2725664 C24.3792035,20.9039823 23.9053097,20.3774336 23.5893805,19.7455752 C23.2734513,19.1137168 23.1154867,18.3238938 23.1154867,17.4287611 L23.1154867,16.9548673 C23.1154867,16.0597345 23.2734513,15.2699115 23.5893805,14.5853982 C23.9053097,13.900885 24.3792035,13.3743363 24.9584071,13.0057522 C25.5376106,12.6371681 26.2221239,12.4792035 26.959292,12.4792035 C27.6964602,12.4792035 28.3809735,12.6371681 28.960177,13.0057522 C29.5393805,13.3743363 30.0132743,13.900885 30.3292035,14.5853982 C30.6451327,15.2699115 30.8030973,16.0597345 30.8030973,16.9548673 L30.8030973,17.3234513 L30.7504425,17.3234513 Z M28.8548673,16.9548673 C28.8548673,16.0070796 28.6969027,15.2699115 28.3283186,14.7960177 C27.9597345,14.3221239 27.4858407,14.0588496 26.9066372,14.0588496 C26.2747788,14.0588496 25.800885,14.3221239 25.4849558,14.7960177 C25.1690265,15.2699115 24.9584071,16.0070796 24.9584071,16.9548673 L24.9584071,17.3761062 C24.9584071,18.3238938 25.1163717,19.0084071 25.4849558,19.5349558 C25.800885,20.0615044 26.3274336,20.3247788 26.959292,20.3247788 C27.5911504,20.3247788 28.0650442,20.0615044 28.3809735,19.5876106 C28.6969027,19.1137168 28.9075221,18.3765487 28.9075221,17.4287611 L28.9075221,16.9548673 L28.8548673,16.9548673 Z" id="Shape"></path>
                    <polygon id="Path" points="39.4911504 21.6411504 37.6482301 21.6411504 34.0676991 15.6911504 34.0676991 21.6411504 32.2247788 21.6411504 32.2247788 12.5845133 34.0676991 12.5845133 37.6482301 18.5345133 37.6482301 12.5845133 39.4911504 12.5845133"></polygon>
                    <polygon id="Path" points="43.1769912 21.6411504 41.3340708 21.6411504 41.3340708 12.5845133 43.1769912 12.5845133"></polygon>
                    <path d="M50.1800885,19.7982301 L46.9154867,19.7982301 L46.2836283,21.6411504 L44.3353982,21.6411504 L47.6526549,12.5845133 L49.3902655,12.5845133 L52.760177,21.6411504 L50.8119469,21.6411504 L50.1800885,19.7982301 Z M47.4420354,18.2712389 L49.7061947,18.2712389 L48.6004425,14.9013274 L47.4420354,18.2712389 Z" id="Shape"></path>
                </g>
                <g id="Group">
                    <circle id="Oval" cx="38.7539823" cy="1.36902655" r="1.15840708"></circle>
                    <circle id="Oval" cx="19.9561947" cy="1.36902655" r="1.15840708"></circle>
                    <circle id="Oval" cx="1.15840708" cy="1.36902655" r="1.15840708"></circle>
                    <circle id="Oval" cx="38.7539823" cy="20.1668142" r="1.15840708"></circle>
                    <circle id="Oval" cx="19.9561947" cy="20.1668142" r="1.15840708"></circle>
                    <circle id="Oval" cx="1.15840708" cy="20.1668142" r="1.15840708"></circle>
                    <circle id="Oval" cx="38.7539823" cy="38.9646018" r="1.15840708"></circle>
                    <circle id="Oval" cx="19.9561947" cy="38.9646018" r="1.15840708"></circle>
                    <circle id="Oval" cx="1.15840708" cy="38.9646018" r="1.15840708"></circle>
                </g>
            </g>
        </g>
    </g>
</svg>