<svg width="24" height="24" viewBox="0 0 24 24" fill="none" xmlns="http://www.w3.org/2000/svg">
<path fill-rule="evenodd" clip-rule="evenodd" d="M11.72 5C8.56093 5 6 7.56093 6 10.72C6 13.8791 8.56093 16.44 11.72 16.44C14.8791 16.44 17.44 13.8791 17.44 10.72C17.44 7.56093 14.8791 5 11.72 5ZM4 10.72C4 6.45636 7.45636 3 11.72 3C15.9836 3 19.44 6.45636 19.44 10.72C19.44 14.9836 15.9836 18.44 11.72 18.44C7.45636 18.44 4 14.9836 4 10.72Z" fill="black"/>
<path fill-rule="evenodd" clip-rule="evenodd" d="M10.5703 5.97998C12.0953 5.97998 13.5578 6.58578 14.6362 7.66412C15.7145 8.74245 16.3203 10.205 16.3203 11.73H14.3203C14.3203 10.7354 13.9252 9.78159 13.222 9.07833C12.5187 8.37507 11.5649 7.97998 10.5703 7.97998V5.97998Z" fill="black"/>
<path fill-rule="evenodd" clip-rule="evenodd" d="M19.4338 21.2975L14.4238 16.2975L15.8366 14.8818L20.8466 19.8818L19.4338 21.2975Z" fill="black"/>
</svg>
